<svg width="111" xmlns="http://www.w3.org/2000/svg" height="112.249" id="screenshot-26195841-ba47-807d-8006-f456eaf790c7" viewBox="0 0 111 112.249" xmlns:xlink="http://www.w3.org/1999/xlink" fill="none" version="1.1"><g id="shape-26195841-ba47-807d-8006-f456eaf790c7" version="1.0" width="111.161" height="134.668" xmlns:xlink="http://www.w3.org/1999/xlink" rx="0" ry="0" style="fill: rgb(0, 0, 0);"><g id="shape-26195841-ba47-807d-8006-f456eafa9cf6"><defs><linearGradient x1="26.649" y1="20.604" x2="135.665" y2="114.398" xlink:href="#render-2-b" id="render-2-d" gradientUnits="userSpaceOnUse" gradientTransform="matrix(0.998552, 0.000000, 0.000000, 0.998752, 0.000000, -0.000000) matrix(0.562541,0,0,0.567972,-14.99112,-11.702371)"/><linearGradient id="render-2-b"><stop offset="0" style="stop-color: rgb(90, 159, 212); stop-opacity: 1;"/><stop offset="1" style="stop-color: rgb(48, 105, 152); stop-opacity: 1;"/></linearGradient></defs><g class="fills" id="fills-26195841-ba47-807d-8006-f456eafa9cf6"><path d="M54.8392333984375,0.0009765624417923391C50.26220703125,0.0224609375,45.891357421875,0.41259765625,42.0452880859375,1.09326171875C30.7154541015625,3.09521484375,28.658447265625,7.28564453125,28.658447265625,15.013671875L28.658447265625,25.21923828125L55.43212890625,25.21923828125L55.43212890625,28.62158203125L28.658447265625,28.62158203125L18.610595703125,28.62158203125C10.829345703125,28.62158203125,4.015869140625,33.29931640625,1.8848876953125,42.1982421875C-0.573486328125,52.3984375,-0.6824951171875,58.763671875,1.8848876953125,69.4140625C3.7879638671875,77.34228515625,8.3330078125,82.9912109375,16.1142578125,82.9912109375L25.319580078125,82.9912109375L25.319580078125,70.75634765625C25.319580078125,61.91748046875,32.965576171875,54.12109375,42.0452880859375,54.12109375L68.787841796875,54.12109375C76.23193359375,54.12109375,82.1746826171875,47.990234375,82.1746826171875,40.5126953125L82.1746826171875,15.013671875C82.1746826171875,7.755859375,76.053466796875,2.3046875,68.787841796875,1.09326171875C64.1883544921875,0.32763671875,59.416259765625,-0.0205078125,54.8392333984375,0.0009765624417923391ZM40.3602294921875,8.20947265625C43.1258544921875,8.20947265625,45.38427734375,10.50537109375,45.38427734375,13.328125C45.38427734375,16.14111328125,43.1258544921875,18.41552734375,40.3602294921875,18.41552734375C37.584716796875,18.41552734375,35.3363037109375,16.14111328125,35.3363037109375,13.328125C35.3363037109375,10.50537109375,37.584716796875,8.20947265625,40.3602294921875,8.20947265625Z" style="fill: url(&quot;#render-2-d&quot;); fill-opacity: 1;"/></g></g><g id="shape-26195841-ba47-807d-8006-f456eafb5b59"><defs><linearGradient x1="150.961" y1="192.352" x2="112.031" y2="137.273" xlink:href="#render-3-a" id="render-3-e" gradientUnits="userSpaceOnUse" gradientTransform="matrix(0.998552, 0.000000, 0.000000, 0.998752, 0.000000, -0.000000) matrix(0.562541,0,0,0.567972,-14.99112,-11.702371)"/><linearGradient id="render-3-a"><stop offset="0" style="stop-color: rgb(255, 212, 59); stop-opacity: 1;"/><stop offset="1" style="stop-color: rgb(255, 232, 115); stop-opacity: 1;"/></linearGradient></defs><g class="fills" id="fills-26195841-ba47-807d-8006-f456eafb5b59"><path d="M85.5135498046875,28.62158203125L85.5135498046875,40.5126953125C85.5135498046875,49.73193359375,77.698974609375,57.49169921875,68.787841796875,57.49169921875L42.0452880859375,57.49169921875C34.7200927734375,57.49169921875,28.658447265625,63.76220703125,28.658447265625,71.099609375L28.658447265625,96.59912109375C28.658447265625,103.85595703125,34.968017578125,108.12451171875,42.0452880859375,110.20703125C50.5203857421875,112.69970703125,58.6474609375,113.150390625,68.787841796875,110.20703125C75.5281982421875,108.2548828125,82.1746826171875,104.32666015625,82.1746826171875,96.59912109375L82.1746826171875,86.39306640625L55.43212890625,86.39306640625L55.43212890625,82.9912109375L82.1746826171875,82.9912109375L95.5615234375,82.9912109375C103.3426513671875,82.9912109375,106.2421875,77.5625,108.9482421875,69.4140625C111.7435302734375,61.02587890625,111.6246337890625,52.958984375,108.9482421875,42.1982421875C107.0252685546875,34.45068359375,103.3525390625,28.62158203125,95.5615234375,28.62158203125ZM70.472900390625,93.197265625C73.248291015625,93.197265625,75.496826171875,95.4716796875,75.496826171875,98.28466796875C75.496826171875,101.10693359375,73.248291015625,103.40283203125,70.472900390625,103.40283203125C67.707275390625,103.40283203125,65.4488525390625,101.10693359375,65.4488525390625,98.28466796875C65.4488525390625,95.4716796875,67.7071533203125,93.197265625,70.472900390625,93.197265625Z" style="fill: url(&quot;#render-3-e&quot;); fill-opacity: 1;"/></g></g></g></svg>